<?xml version="1.0" encoding="utf-8"?>
<!-- Generator: Adobe Illustrator 17.0.0, SVG Export Plug-In . SVG Version: 6.00 Build 0)  -->
<!DOCTYPE svg PUBLIC "-//W3C//DTD SVG 1.1//EN" "http://www.w3.org/Graphics/SVG/1.1/DTD/svg11.dtd">
<svg version="1.1" id="Layer_1" xmlns="http://www.w3.org/2000/svg" xmlns:xlink="http://www.w3.org/1999/xlink" x="0px" y="0px"
	 width="56px" height="28px" viewBox="0 0 56 28" enable-background="new 0 0 56 28" xml:space="preserve">
<g id="Layer_2" display="none">
	<rect display="inline" fill="#F680FF" width="28" height="28"/>
	<rect x="28" display="inline" fill="#F9C5FF" width="28" height="28"/>
</g>
<path fill="#1F93CF" d="M25.309,10.838h-1.147c-1.126,0-1.791-0.703-1.791-1.527V8.577c0-3.738-4.079-7.664-7.594-7.664H9.242
	c-4.65,0-8.313,3.663-8.313,8.313v9.93c0,4.366,3.758,7.931,7.621,7.931h10.512c4.287,0,8.008-3.604,8.008-8.008v-6.285
	C27.07,11.626,26.73,10.838,25.309,10.838z M9.242,7.793h4.751c0.837,0,1.522,0.685,1.522,1.522c0,0.834-0.69,1.522-1.522,1.522
	H9.242c-0.839,0-1.524-0.685-1.524-1.522C7.719,8.482,8.407,7.793,9.242,7.793z M18.681,20.305H9.242
	c-0.837,0-1.524-0.685-1.524-1.522c0.001-0.834,0.689-1.524,1.524-1.524h9.439c0.839,0,1.524,0.685,1.524,1.524
	C20.205,19.616,19.514,20.305,18.681,20.305z"/>
<path fill="#F29B07" d="M53.309,10.838h-1.147c-1.126,0-1.791-0.703-1.791-1.527V8.577c0-3.738-4.079-7.664-7.594-7.664h-5.535
	c-4.65,0-8.313,3.663-8.313,8.313v9.93c0,4.366,3.758,7.931,7.621,7.931h10.512c4.287,0,8.008-3.604,8.008-8.008v-6.285
	C55.07,11.626,54.73,10.838,53.309,10.838z M37.242,7.793h4.751c0.837,0,1.522,0.685,1.522,1.522c0,0.834-0.69,1.522-1.522,1.522
	h-4.751c-0.839,0-1.524-0.685-1.524-1.522C35.719,8.482,36.407,7.793,37.242,7.793z M46.681,20.305h-9.439
	c-0.837,0-1.524-0.685-1.524-1.522c0.001-0.834,0.689-1.524,1.524-1.524h9.439c0.839,0,1.524,0.685,1.524,1.524
	C48.205,19.616,47.514,20.305,46.681,20.305z"/>
<g id="Layer_3" display="none">
	<path display="inline" fill="#1F93CF" d="M24.745,5.092H3.637c-1.186,0-2.931,0.977-2.931,2.394v13.138
		c0,1.433,1.717,2.285,2.931,2.285h21.108c1.263,0,2.549-0.941,2.549-2.284V7.486C27.294,6.137,26.008,5.092,24.745,5.092z
		 M24.712,6.736c-3.09,2.467-7.842,5.822-8.881,6.43c-1.049,0.616-2.359,0.663-3.417,0.118c-1.173-0.603-6.176-4.389-8.959-6.525
		C3.517,6.75,3.578,6.736,3.637,6.736H24.712z M11.673,14.731c0.723,0.371,1.525,0.556,2.33,0.556c0.916,0,1.836-0.239,2.647-0.713
		c0.147-0.086,0.372-0.276,0.629-0.449l5.555,7.139H5.29l5.524-7.099C11.171,14.399,11.469,14.626,11.673,14.731z M2.077,20.624
		V7.91c1.645,1.188,4.965,3.721,7.297,5.376l-6.246,8.008C2.615,21.159,2.077,20.789,2.077,20.624z M24.801,21.336L18.5,13.239
		c2.231-1.586,5.504-4.068,7.148-5.276v12.66C25.649,20.926,25.251,21.275,24.801,21.336z"/>
	<path display="inline" fill="#F29B07" d="M52.745,5.092H31.637c-1.186,0-2.931,0.977-2.931,2.394v13.138
		c0,1.433,1.717,2.285,2.931,2.285h21.108c1.263,0,2.549-0.941,2.549-2.284V7.486C55.294,6.137,54.008,5.092,52.745,5.092z
		 M52.712,6.736c-3.09,2.467-7.842,5.822-8.881,6.43c-1.049,0.616-2.359,0.663-3.417,0.118c-1.173-0.603-6.176-4.389-8.959-6.525
		c0.061-0.009,0.122-0.023,0.182-0.023C31.637,6.736,52.712,6.736,52.712,6.736z M39.673,14.731c0.723,0.371,1.525,0.556,2.33,0.556
		c0.916,0,1.836-0.239,2.647-0.713c0.147-0.086,0.372-0.276,0.629-0.449l5.555,7.139H33.29l5.524-7.099
		C39.171,14.399,39.469,14.626,39.673,14.731z M30.077,20.624V7.91c1.645,1.188,4.965,3.721,7.297,5.376l-6.246,8.008
		C30.615,21.159,30.077,20.789,30.077,20.624z M52.801,21.336L46.5,13.239c2.231-1.586,5.504-4.068,7.148-5.276v12.66
		C53.649,20.926,53.251,21.275,52.801,21.336z"/>
</g>
</svg>
