<?xml version="1.0" encoding="utf-8"?>
<!-- Generator: Adobe Illustrator 17.0.0, SVG Export Plug-In . SVG Version: 6.00 Build 0)  -->
<!DOCTYPE svg PUBLIC "-//W3C//DTD SVG 1.1//EN" "http://www.w3.org/Graphics/SVG/1.1/DTD/svg11.dtd">
<svg version="1.1" xmlns="http://www.w3.org/2000/svg" xmlns:xlink="http://www.w3.org/1999/xlink" x="0px" y="0px" width="56px"
	 height="28px" viewBox="0 0 56 28" enable-background="new 0 0 56 28" xml:space="preserve">
<g id="Layer_2" display="none">
	<rect display="inline" fill="#F680FF" width="28" height="28"/>
	<rect x="28" display="inline" fill="#F9C5FF" width="28" height="28"/>
</g>
<g id="Layer_1" display="none">
	<path display="inline" fill-rule="evenodd" clip-rule="evenodd" fill="#1F93CF" d="M9.242,0.913h5.535
		c3.515,0,7.594,3.926,7.594,7.664v0.734c0,0.824,0.665,1.527,1.791,1.527h1.147c1.421,0,1.761,0.788,1.761,1.956v6.285
		c0,4.404-3.721,8.008-8.008,8.008H8.55c-3.863,0-7.621-3.565-7.621-7.931V9.226C0.929,4.576,4.592,0.913,9.242,0.913L9.242,0.913z
		 M9.242,7.793h4.751c0.837,0,1.522,0.685,1.522,1.522c0,0.834-0.69,1.522-1.522,1.522H9.242c-0.839,0-1.524-0.685-1.524-1.522
		C7.719,8.482,8.407,7.793,9.242,7.793L9.242,7.793z M9.242,17.259h9.439c0.839,0,1.524,0.685,1.524,1.524
		c0,0.833-0.691,1.522-1.524,1.522H9.242c-0.837,0-1.524-0.685-1.524-1.522C7.719,17.949,8.407,17.259,9.242,17.259L9.242,17.259z"
		/>
	<path display="inline" fill-rule="evenodd" clip-rule="evenodd" fill="#F29B07" d="M37.242,0.913h5.535
		c3.515,0,7.594,3.926,7.594,7.664v0.734c0,0.824,0.665,1.527,1.791,1.527h1.147c1.421,0,1.761,0.788,1.761,1.956v6.285
		c0,4.404-3.721,8.008-8.008,8.008H36.55c-3.863,0-7.621-3.565-7.621-7.931V9.226C28.929,4.576,32.592,0.913,37.242,0.913
		L37.242,0.913z M37.242,7.793h4.751c0.837,0,1.522,0.685,1.522,1.522c0,0.834-0.69,1.522-1.522,1.522h-4.751
		c-0.839,0-1.524-0.685-1.524-1.522C35.719,8.482,36.407,7.793,37.242,7.793L37.242,7.793z M37.242,17.259h9.439
		c0.839,0,1.524,0.685,1.524,1.524c0,0.833-0.691,1.522-1.524,1.522h-9.439c-0.837,0-1.524-0.685-1.524-1.522
		C35.719,17.949,36.407,17.259,37.242,17.259L37.242,17.259z"/>
</g>
<g id="Layer_4" display="none">
	<g display="inline">
		<polygon fill="#1F93CF" points="27,13 24,13 24,10 22,10 22,13 19,13 19,15 22,15 22,17 24,17 24,15 27,15 		"/>
		<path fill="#1F93CF" d="M14.644,15.739l-1.209-0.923c-0.369-0.299-0.872-0.695-0.872-1.421c0-0.728,0.503-1.192,0.939-1.621
			c1.409-1.089,2.818-2.111,2.818-4.556c0-2.513-1.529-3.218-2.3-4.218h1.988l2.172-1.465l-6.994-0.07
			c-1.813,0-4.257,0.153-6.17,1.706C3.576,4.393,3.102,6.173,3.102,7.693c0,2.576,2.013,5.18,5.569,5.18
			c0.336,0,0.703-0.037,1.074-0.07c-0.167,0.396-0.336,0.725-0.336,1.287c0,1.024,0.536,1.65,1.007,2.245
			c-1.509,0.101-4.329,0.265-6.407,1.52c-1.982,1.158-2.584,2.842-2.584,4.033c0,2.447,2.252,4.751,7.117,4.751
			c5.77,0,8.919-3.164,8.919-6.271C17.461,18.088,16.12,16.963,14.644,15.739z M10.249,12.022c-2.886,0-4.194-3.669-4.194-5.883
			c0-0.86,0.167-1.834,0.737-2.529c0.538-0.662,1.477-1.008,2.35-1.008c2.784,0,4.226,3.702,4.226,6.082
			c0,0.595-0.067,1.568-0.838,2.33C11.992,11.543,11.087,12.022,10.249,12.022z M10.278,25.229c-3.589,0-5.905-1.687-5.905-4.034
			c0-2.347,2.147-3.14,2.885-3.404c1.409-0.463,3.222-0.53,3.524-0.53c0.334,0,0.502,0,0.769,0.034
			c2.552,1.786,3.659,2.676,3.659,4.364C15.211,23.705,13.498,25.229,10.278,25.229z"/>
	</g>
	<g display="inline">
		<polygon fill="#F29B07" points="55,13 52,13 52,10 50,10 50,13 47,13 47,15 50,15 50,17 52,17 52,15 55,15 		"/>
		<path fill="#F29B07" d="M42.432,15.687l-1.209-0.923c-0.369-0.299-0.872-0.695-0.872-1.421c0-0.728,0.503-1.192,0.939-1.621
			c1.409-1.089,2.818-2.085,2.818-4.53c0-2.513-1.529-3.192-2.3-4.192h1.988l2.172-1.491l-6.994-0.083
			c-1.813,0-4.257,0.146-6.17,1.7c-1.441,1.222-1.914,2.998-1.914,4.518c0,2.576,2.013,5.178,5.569,5.178
			c0.336,0,0.703-0.038,1.074-0.07c-0.167,0.396-0.336,0.725-0.336,1.287c0,1.024,0.536,1.65,1.007,2.245
			c-1.509,0.101-4.329,0.265-6.407,1.52c-1.982,1.158-2.584,2.842-2.584,4.033c0,2.447,2.252,4.751,7.117,4.751
			c5.77,0,8.919-3.164,8.919-6.271C45.249,18.036,43.907,16.911,42.432,15.687z M38.037,11.97c-2.886,0-4.194-3.669-4.194-5.883
			c0-0.86,0.167-1.834,0.737-2.529c0.538-0.662,1.477-1.008,2.35-1.008c2.784,0,4.226,3.702,4.226,6.082
			c0,0.595-0.067,1.568-0.838,2.33C39.779,11.491,38.875,11.97,38.037,11.97z M38.066,25.176c-3.589,0-5.905-1.687-5.905-4.034
			c0-2.347,2.147-3.14,2.885-3.404c1.409-0.463,3.222-0.53,3.524-0.53c0.334,0,0.502,0,0.769,0.034
			c2.552,1.786,3.659,2.676,3.659,4.364C42.998,23.653,41.285,25.176,38.066,25.176z"/>
	</g>
</g>
<g id="Layer_3">
	<path fill="#1F93CF" d="M25.133,4.77H3.263c-1.229,0-3.037,1.012-3.037,2.48v13.612c0,1.485,1.779,2.367,3.037,2.367h21.87
		c1.309,0,2.641-0.975,2.641-2.367V7.25C27.774,5.853,26.442,4.77,25.133,4.77z M25.099,6.474c-3.202,2.556-8.125,6.032-9.201,6.662
		c-1.087,0.638-2.445,0.687-3.54,0.123c-1.215-0.625-6.399-4.547-9.283-6.761c0.063-0.009,0.127-0.024,0.188-0.024H25.099z
		 M11.589,14.758c0.749,0.385,1.58,0.576,2.414,0.576c0.949,0,1.902-0.248,2.742-0.739c0.153-0.089,0.385-0.286,0.652-0.465
		l5.756,7.397H4.976l5.724-7.355C11.069,14.414,11.378,14.649,11.589,14.758z M1.646,20.863V7.69
		c1.704,1.231,5.145,3.856,7.561,5.57l-6.472,8.298C2.203,21.418,1.646,21.035,1.646,20.863z M25.191,21.601l-6.528-8.389
		c2.311-1.643,5.703-4.215,7.407-5.467v13.118C26.07,21.176,25.657,21.538,25.191,21.601z"/>
	<path fill="#F29B07" d="M53.133,4.77h-21.87c-1.229,0-3.037,1.012-3.037,2.48v13.612c0,1.485,1.779,2.367,3.037,2.367h21.87
		c1.309,0,2.641-0.975,2.641-2.367V7.25C55.774,5.853,54.442,4.77,53.133,4.77z M53.099,6.474c-3.202,2.556-8.125,6.032-9.201,6.662
		c-1.087,0.638-2.445,0.687-3.54,0.123c-1.215-0.625-6.399-4.547-9.283-6.761c0.063-0.009,0.127-0.024,0.188-0.024H53.099z
		 M39.589,14.758c0.749,0.385,1.58,0.576,2.414,0.576c0.949,0,1.902-0.248,2.742-0.739c0.153-0.089,0.385-0.286,0.652-0.465
		l5.756,7.397H32.976l5.724-7.355C39.069,14.414,39.378,14.649,39.589,14.758z M29.646,20.863V7.69
		c1.704,1.231,5.145,3.856,7.561,5.57l-6.472,8.298C30.203,21.418,29.646,21.035,29.646,20.863z M53.191,21.601l-6.528-8.389
		c2.311-1.643,5.703-4.215,7.407-5.467v13.118C54.07,21.176,53.657,21.538,53.191,21.601z"/>
</g>
</svg>
