<?xml version="1.0" encoding="utf-8"?>
<!-- Generator: Adobe Illustrator 17.0.0, SVG Export Plug-In . SVG Version: 6.00 Build 0)  -->
<!DOCTYPE svg PUBLIC "-//W3C//DTD SVG 1.1//EN" "http://www.w3.org/Graphics/SVG/1.1/DTD/svg11.dtd">
<svg version="1.1" xmlns="http://www.w3.org/2000/svg" xmlns:xlink="http://www.w3.org/1999/xlink" x="0px" y="0px" width="56px"
	 height="28px" viewBox="0 0 56 28" enable-background="new 0 0 56 28" xml:space="preserve">
<g id="Layer_2" display="none">
	<rect display="inline" fill="#F680FF" width="28" height="28"/>
	<rect x="28" display="inline" fill="#F9C5FF" width="28" height="28"/>
</g>
<g id="Layer_1" display="none">
	<path display="inline" fill-rule="evenodd" clip-rule="evenodd" fill="#1F93CF" d="M9.242,0.913h5.535
		c3.515,0,7.594,3.926,7.594,7.664v0.734c0,0.824,0.665,1.527,1.791,1.527h1.147c1.421,0,1.761,0.788,1.761,1.956v6.285
		c0,4.404-3.721,8.008-8.008,8.008H8.55c-3.863,0-7.621-3.565-7.621-7.931V9.226C0.929,4.576,4.592,0.913,9.242,0.913L9.242,0.913z
		 M9.242,7.793h4.751c0.837,0,1.522,0.685,1.522,1.522c0,0.834-0.69,1.522-1.522,1.522H9.242c-0.839,0-1.524-0.685-1.524-1.522
		C7.719,8.482,8.407,7.793,9.242,7.793L9.242,7.793z M9.242,17.259h9.439c0.839,0,1.524,0.685,1.524,1.524
		c0,0.833-0.691,1.522-1.524,1.522H9.242c-0.837,0-1.524-0.685-1.524-1.522C7.719,17.949,8.407,17.259,9.242,17.259L9.242,17.259z"
		/>
	<path display="inline" fill-rule="evenodd" clip-rule="evenodd" fill="#F29B07" d="M37.242,0.913h5.535
		c3.515,0,7.594,3.926,7.594,7.664v0.734c0,0.824,0.665,1.527,1.791,1.527h1.147c1.421,0,1.761,0.788,1.761,1.956v6.285
		c0,4.404-3.721,8.008-8.008,8.008H36.55c-3.863,0-7.621-3.565-7.621-7.931V9.226C28.929,4.576,32.592,0.913,37.242,0.913
		L37.242,0.913z M37.242,7.793h4.751c0.837,0,1.522,0.685,1.522,1.522c0,0.834-0.69,1.522-1.522,1.522h-4.751
		c-0.839,0-1.524-0.685-1.524-1.522C35.719,8.482,36.407,7.793,37.242,7.793L37.242,7.793z M37.242,17.259h9.439
		c0.839,0,1.524,0.685,1.524,1.524c0,0.833-0.691,1.522-1.524,1.522h-9.439c-0.837,0-1.524-0.685-1.524-1.522
		C35.719,17.949,36.407,17.259,37.242,17.259L37.242,17.259z"/>
</g>
<g id="Layer_4">
	<g>
		<polygon fill="#1F93CF" points="27,13 24,13 24,10 22,10 22,13 19,13 19,15 22,15 22,17 24,17 24,15 27,15 		"/>
		<path fill="#1F93CF" d="M14.644,15.739l-1.209-0.923c-0.369-0.299-0.872-0.695-0.872-1.421c0-0.728,0.503-1.192,0.939-1.621
			c1.409-1.089,2.818-2.111,2.818-4.556c0-2.513-1.529-3.218-2.3-4.218h1.988l2.172-1.465l-6.994-0.07
			c-1.813,0-4.257,0.153-6.17,1.706C3.576,4.393,3.102,6.173,3.102,7.693c0,2.576,2.013,5.18,5.569,5.18
			c0.336,0,0.703-0.037,1.074-0.07c-0.167,0.396-0.336,0.725-0.336,1.287c0,1.024,0.536,1.65,1.007,2.245
			c-1.509,0.101-4.329,0.265-6.407,1.52c-1.982,1.158-2.584,2.842-2.584,4.033c0,2.447,2.252,4.751,7.117,4.751
			c5.77,0,8.919-3.164,8.919-6.271C17.461,18.088,16.12,16.963,14.644,15.739z M10.249,12.022c-2.886,0-4.194-3.669-4.194-5.883
			c0-0.86,0.167-1.834,0.737-2.529c0.538-0.662,1.477-1.008,2.35-1.008c2.784,0,4.226,3.702,4.226,6.082
			c0,0.595-0.067,1.568-0.838,2.33C11.992,11.543,11.087,12.022,10.249,12.022z M10.278,25.229c-3.589,0-5.905-1.687-5.905-4.034
			c0-2.347,2.147-3.14,2.885-3.404c1.409-0.463,3.222-0.53,3.524-0.53c0.334,0,0.502,0,0.769,0.034
			c2.552,1.786,3.659,2.676,3.659,4.364C15.211,23.705,13.498,25.229,10.278,25.229z"/>
	</g>
	<g>
		<polygon fill="#F29B07" points="55,13 52,13 52,10 50,10 50,13 47,13 47,15 50,15 50,17 52,17 52,15 55,15 		"/>
		<path fill="#F29B07" d="M42.432,15.687l-1.209-0.923c-0.369-0.299-0.872-0.695-0.872-1.421c0-0.728,0.503-1.192,0.939-1.621
			c1.409-1.089,2.818-2.085,2.818-4.53c0-2.513-1.529-3.192-2.3-4.192h1.988l2.172-1.491l-6.994-0.083
			c-1.813,0-4.257,0.146-6.17,1.7c-1.441,1.222-1.914,2.998-1.914,4.518c0,2.576,2.013,5.178,5.569,5.178
			c0.336,0,0.703-0.038,1.074-0.07c-0.167,0.396-0.336,0.725-0.336,1.287c0,1.024,0.536,1.65,1.007,2.245
			c-1.509,0.101-4.329,0.265-6.407,1.52c-1.982,1.158-2.584,2.842-2.584,4.033c0,2.447,2.252,4.751,7.117,4.751
			c5.77,0,8.919-3.164,8.919-6.271C45.249,18.036,43.907,16.911,42.432,15.687z M38.037,11.97c-2.886,0-4.194-3.669-4.194-5.883
			c0-0.86,0.167-1.834,0.737-2.529c0.538-0.662,1.477-1.008,2.35-1.008c2.784,0,4.226,3.702,4.226,6.082
			c0,0.595-0.067,1.568-0.838,2.33C39.779,11.491,38.875,11.97,38.037,11.97z M38.066,25.176c-3.589,0-5.905-1.687-5.905-4.034
			c0-2.347,2.147-3.14,2.885-3.404c1.409-0.463,3.222-0.53,3.524-0.53c0.334,0,0.502,0,0.769,0.034
			c2.552,1.786,3.659,2.676,3.659,4.364C42.998,23.653,41.285,25.176,38.066,25.176z"/>
	</g>
</g>
<g id="Layer_3" display="none">
	<path display="inline" fill="#1F93CF" d="M24.745,5.092H3.637c-1.186,0-2.931,0.977-2.931,2.394v13.138
		c0,1.433,1.717,2.285,2.931,2.285h21.108c1.263,0,2.549-0.941,2.549-2.284V7.486C27.294,6.137,26.008,5.092,24.745,5.092z
		 M24.712,6.736c-3.09,2.467-7.842,5.822-8.881,6.43c-1.049,0.616-2.359,0.663-3.417,0.118c-1.173-0.603-6.176-4.389-8.959-6.525
		C3.517,6.75,3.578,6.736,3.637,6.736H24.712z M11.673,14.731c0.723,0.371,1.525,0.556,2.33,0.556c0.916,0,1.836-0.239,2.647-0.713
		c0.147-0.086,0.372-0.276,0.629-0.449l5.555,7.139H5.29l5.524-7.099C11.171,14.399,11.469,14.626,11.673,14.731z M2.077,20.624
		V7.91c1.645,1.188,4.965,3.721,7.297,5.376l-6.246,8.008C2.615,21.159,2.077,20.789,2.077,20.624z M24.801,21.336l-6.301-8.097
		c2.231-1.586,5.504-4.068,7.148-5.276v12.66C25.649,20.926,25.251,21.275,24.801,21.336z"/>
	<path display="inline" fill="#F29B07" d="M52.745,5.092H31.637c-1.186,0-2.931,0.977-2.931,2.394v13.138
		c0,1.433,1.717,2.285,2.931,2.285h21.108c1.263,0,2.549-0.941,2.549-2.284V7.486C55.294,6.137,54.008,5.092,52.745,5.092z
		 M52.712,6.736c-3.09,2.467-7.842,5.822-8.881,6.43c-1.049,0.616-2.359,0.663-3.417,0.118c-1.173-0.603-6.176-4.389-8.959-6.525
		c0.061-0.009,0.122-0.023,0.182-0.023H52.712z M39.673,14.731c0.723,0.371,1.525,0.556,2.33,0.556c0.916,0,1.836-0.239,2.647-0.713
		c0.147-0.086,0.372-0.276,0.629-0.449l5.555,7.139H33.29l5.524-7.099C39.171,14.399,39.469,14.626,39.673,14.731z M30.077,20.624
		V7.91c1.645,1.188,4.965,3.721,7.297,5.376l-6.246,8.008C30.615,21.159,30.077,20.789,30.077,20.624z M52.801,21.336l-6.301-8.097
		c2.231-1.586,5.504-4.068,7.148-5.276v12.66C53.649,20.926,53.251,21.275,52.801,21.336z"/>
</g>
</svg>
